<?xml version="1.0" encoding="utf-8"?>
<svg width="514" height="230" viewBox="0 0 514 230" xmlns="http://www.w3.org/2000/svg">
<rect id="frame" x="0" y="0" width="514" height="230" fill="#f7f7f7" stroke="none" stroke-width="0"/>

<!-- Entity Composer -->
<g>
	<g>
		<rect x="205" y="26" width="88" height="25" fill="#b2abd2" stroke="#b2abd2" stroke-width="0" opacity="1"/>
		<rect x="205" y="51" width="88" height="43" fill="#d8daeb" stroke="#d8daeb" stroke-width="0" opacity="1"/>
		<rect x="205" y="26" width="88" height="68" fill="none" stroke="#8073ac" stroke-width="2" opacity="1"/>
		<line x1="205" y1="51" x2="293" y2="51" stroke="#8073ac" stroke-width="1"/>
	</g>
	<text x="218" y="43.75" fill="#000" font-family="Verdana" font-size="12">Composer</text>
	<text x="210" y="68.8" fill="#000" font-family="Verdana" font-size="12">#ID_Projet</text>
	<line x1="210" y1="71" x2="278" y2="71" stroke="#000" stroke-width="1"/>
	<text x="210" y="85.8" fill="#000" font-family="Verdana" font-size="12">#ID_module</text>
	<line x1="210" y1="88" x2="287" y2="88" stroke="#000" stroke-width="1"/>
</g>

<!-- Entity Projet -->
<g>
	<g>
		<rect x="357" y="9" width="116" height="25" fill="#b2abd2" stroke="#b2abd2" stroke-width="0" opacity="1"/>
		<rect x="357" y="34" width="116" height="77" fill="#d8daeb" stroke="#d8daeb" stroke-width="0" opacity="1"/>
		<rect x="357" y="9" width="116" height="102" fill="none" stroke="#8073ac" stroke-width="2" opacity="1"/>
		<line x1="357" y1="34" x2="473" y2="34" stroke="#8073ac" stroke-width="1"/>
	</g>
	<text x="397" y="26.75" fill="#000" font-family="Verdana" font-size="12">Projet</text>
	<text x="362" y="51.8" fill="#000" font-family="Verdana" font-size="12">ID_Projet</text>
	<line x1="362" y1="54" x2="421" y2="54" stroke="#000" stroke-width="1"/>
	<text x="362" y="68.8" fill="#000" font-family="Verdana" font-size="12">Nom</text>
	<text x="362" y="85.8" fill="#000" font-family="Verdana" font-size="12">Date_de creation</text>
	<text x="362" y="102.8" fill="#000" font-family="Verdana" font-size="12">#N°Licence</text>
</g>

<!-- Entity Depend -->
<g>
	<g>
		<rect x="41" y="136" width="100" height="25" fill="#b2abd2" stroke="#b2abd2" stroke-width="0" opacity="1"/>
		<rect x="41" y="161" width="100" height="43" fill="#d8daeb" stroke="#d8daeb" stroke-width="0" opacity="1"/>
		<rect x="41" y="136" width="100" height="68" fill="none" stroke="#8073ac" stroke-width="2" opacity="1"/>
		<line x1="41" y1="161" x2="141" y2="161" stroke="#8073ac" stroke-width="1"/>
	</g>
	<text x="68" y="153.75" fill="#000" font-family="Verdana" font-size="12">Depend</text>
	<text x="46" y="178.8" fill="#000" font-family="Verdana" font-size="12">#ID_module</text>
	<line x1="46" y1="181" x2="123" y2="181" stroke="#000" stroke-width="1"/>
	<text x="46" y="195.8" fill="#000" font-family="Verdana" font-size="12">#ID_module.1</text>
	<line x1="46" y1="198" x2="135" y2="198" stroke="#000" stroke-width="1"/>
</g>

<!-- Entity Module -->
<g>
	<g>
		<rect x="208" y="119" width="82" height="25" fill="#b2abd2" stroke="#b2abd2" stroke-width="0" opacity="1"/>
		<rect x="208" y="144" width="82" height="77" fill="#d8daeb" stroke="#d8daeb" stroke-width="0" opacity="1"/>
		<rect x="208" y="119" width="82" height="102" fill="none" stroke="#8073ac" stroke-width="2" opacity="1"/>
		<line x1="208" y1="144" x2="290" y2="144" stroke="#8073ac" stroke-width="1"/>
	</g>
	<text x="227" y="136.75" fill="#000" font-family="Verdana" font-size="12">Module</text>
	<text x="213" y="161.8" fill="#000" font-family="Verdana" font-size="12">ID_module</text>
	<line x1="213" y1="164" x2="280" y2="164" stroke="#000" stroke-width="1"/>
	<text x="213" y="178.8" fill="#000" font-family="Verdana" font-size="12">Nom</text>
	<text x="213" y="195.8" fill="#000" font-family="Verdana" font-size="12">Version</text>
	<text x="213" y="212.8" fill="#000" font-family="Verdana" font-size="12">#N°Licence</text>
</g>

<!-- Entity Licence -->
<g>
	<g>
		<rect x="379" y="136" width="72" height="25" fill="#b2abd2" stroke="#b2abd2" stroke-width="0" opacity="1"/>
		<rect x="379" y="161" width="72" height="43" fill="#d8daeb" stroke="#d8daeb" stroke-width="0" opacity="1"/>
		<rect x="379" y="136" width="72" height="68" fill="none" stroke="#8073ac" stroke-width="2" opacity="1"/>
		<line x1="379" y1="161" x2="451" y2="161" stroke="#8073ac" stroke-width="1"/>
	</g>
	<text x="393" y="153.75" fill="#000" font-family="Verdana" font-size="12">Licence</text>
	<text x="384" y="178.8" fill="#000" font-family="Verdana" font-size="12">N°Licence</text>
	<line x1="384" y1="181" x2="445" y2="181" stroke="#000" stroke-width="1"/>
	<text x="384" y="195.8" fill="#000" font-family="Verdana" font-size="12">Nom</text>
</g>

<!-- Link from &quot;ID_Projet&quot; (Composer) to &quot;ID_Projet&quot; (Projet) -->
<path d="M293 64.5 C325 56 314.33 47.5 357 47.5" fill="none" stroke="#e08214" stroke-width="2"/>
<polygon points="357 47.5 345 53.5 349 47.5 345 41.5" fill="#e08214" stroke-width="0"/>
<circle cx="293" cy="64.5" r="2" stroke="#e08214" stroke-width="2" fill="#e08214"/>

<!-- Link from &quot;ID_module&quot; (Composer) to &quot;ID_module&quot; (Module) -->
<path d="M205 81.5 C151 119.5 154 157.5 208 157.5" fill="none" stroke="#e08214" stroke-width="2"/>
<polygon points="208 157.5 196 163.5 200 157.5 196 151.5" fill="#e08214" stroke-width="0"/>
<circle cx="205" cy="81.5" r="2" stroke="#e08214" stroke-width="2" fill="#e08214"/>

<!-- Link from &quot;N°Licence&quot; (Projet) to &quot;N°Licence&quot; (Licence) -->
<path d="M357 98.5 C303 136.5 325 174.5 379 174.5" fill="none" stroke="#e08214" stroke-width="2"/>
<polygon points="379 174.5 367 180.5 371 174.5 367 168.5" fill="#e08214" stroke-width="0"/>
<circle cx="357" cy="98.5" r="2" stroke="#e08214" stroke-width="2" fill="#e08214"/>

<!-- Link from &quot;ID_module&quot; (Depend) to &quot;ID_module&quot; (Module) -->
<path d="M141 174.5 C174.5 166 163.33 157.5 208 157.5" fill="none" stroke="#e08214" stroke-width="2"/>
<polygon points="208 157.5 196 163.5 200 157.5 196 151.5" fill="#e08214" stroke-width="0"/>
<circle cx="141" cy="174.5" r="2" stroke="#e08214" stroke-width="2" fill="#e08214"/>

<!-- Link from &quot;ID_module&quot; (Depend) to &quot;ID_module&quot; (Module) -->
<path d="M141 191.5 C174.5 174.5 163.33 157.5 208 157.5" fill="none" stroke="#e08214" stroke-width="2"/>
<polygon points="208 157.5 196 163.5 200 157.5 196 151.5" fill="#e08214" stroke-width="0"/>
<circle cx="141" cy="191.5" r="2" stroke="#e08214" stroke-width="2" fill="#e08214"/>

<!-- Link from &quot;N°Licence&quot; (Module) to &quot;N°Licence&quot; (Licence) -->
<path d="M290 208.5 C334.5 191.5 319.67 174.5 379 174.5" fill="none" stroke="#e08214" stroke-width="2"/>
<polygon points="379 174.5 367 180.5 371 174.5 367 168.5" fill="#e08214" stroke-width="0"/>
<circle cx="290" cy="208.5" r="2" stroke="#e08214" stroke-width="2" fill="#e08214"/>
</svg>