<?xml version="1.0" encoding="utf-8"?>
<svg width="684" height="271" viewBox="0 0 684 271" xmlns="http://www.w3.org/2000/svg">
<rect id="frame" x="0" y="0" width="684" height="271" fill="#f7f7f7" stroke="none" stroke-width="0"/>

<!-- Entity Embarquer -->
<g>
	<g>
		<rect x="415" y="17" width="78" height="25" fill="#b2abd2" stroke="#b2abd2" stroke-width="0" opacity="1"/>
		<rect x="415" y="42" width="78" height="43" fill="#d8daeb" stroke="#d8daeb" stroke-width="0" opacity="1"/>
		<rect x="415" y="17" width="78" height="68" fill="none" stroke="#8073ac" stroke-width="2" opacity="1"/>
		<line x1="415" y1="42" x2="493" y2="42" stroke="#8073ac" stroke-width="1"/>
	</g>
	<text x="421" y="34.75" fill="#000" font-family="Verdana" font-size="12">Embarquer</text>
	<text x="420" y="59.8" fill="#000" font-family="Verdana" font-size="12">#N째Vol</text>
	<line x1="420" y1="62" x2="465" y2="62" stroke="#000" stroke-width="1"/>
	<text x="420" y="76.8" fill="#000" font-family="Verdana" font-size="12">#ID</text>
	<line x1="420" y1="79" x2="445" y2="79" stroke="#000" stroke-width="1"/>
</g>

<!-- Entity Passager -->
<g>
	<g>
		<rect x="577" y="9" width="66" height="25" fill="#b2abd2" stroke="#b2abd2" stroke-width="0" opacity="1"/>
		<rect x="577" y="34" width="66" height="59" fill="#d8daeb" stroke="#d8daeb" stroke-width="0" opacity="1"/>
		<rect x="577" y="9" width="66" height="84" fill="none" stroke="#8073ac" stroke-width="2" opacity="1"/>
		<line x1="577" y1="34" x2="643" y2="34" stroke="#8073ac" stroke-width="1"/>
	</g>
	<text x="583" y="26.75" fill="#000" font-family="Verdana" font-size="12">Passager</text>
	<text x="582" y="51.8" fill="#000" font-family="Verdana" font-size="12">ID</text>
	<line x1="582" y1="54" x2="597" y2="54" stroke="#000" stroke-width="1"/>
	<text x="582" y="68.8" fill="#000" font-family="Verdana" font-size="12">Nom</text>
	<text x="582" y="85.8" fill="#000" font-family="Verdana" font-size="12">Prenom</text>
</g>

<!-- Entity Avion -->
<g>
	<g>
		<rect x="41" y="144" width="118" height="25" fill="#b2abd2" stroke="#b2abd2" stroke-width="0" opacity="1"/>
		<rect x="41" y="169" width="118" height="59" fill="#d8daeb" stroke="#d8daeb" stroke-width="0" opacity="1"/>
		<rect x="41" y="144" width="118" height="84" fill="none" stroke="#8073ac" stroke-width="2" opacity="1"/>
		<line x1="41" y1="169" x2="159" y2="169" stroke="#8073ac" stroke-width="1"/>
	</g>
	<text x="83" y="161.75" fill="#000" font-family="Verdana" font-size="12">Avion</text>
	<text x="46" y="186.8" fill="#000" font-family="Verdana" font-size="12">Immatriculation</text>
	<line x1="46" y1="189" x2="143" y2="189" stroke="#000" stroke-width="1"/>
	<text x="46" y="203.8" fill="#000" font-family="Verdana" font-size="12">Type</text>
	<text x="46" y="220.8" fill="#000" font-family="Verdana" font-size="12">#Numero_unique</text>
</g>

<!-- Entity Compagnie -->
<g>
	<g>
		<rect x="223" y="152" width="108" height="25" fill="#b2abd2" stroke="#b2abd2" stroke-width="0" opacity="1"/>
		<rect x="223" y="177" width="108" height="43" fill="#d8daeb" stroke="#d8daeb" stroke-width="0" opacity="1"/>
		<rect x="223" y="152" width="108" height="68" fill="none" stroke="#8073ac" stroke-width="2" opacity="1"/>
		<line x1="223" y1="177" x2="331" y2="177" stroke="#8073ac" stroke-width="1"/>
	</g>
	<text x="243" y="169.75" fill="#000" font-family="Verdana" font-size="12">Compagnie</text>
	<text x="228" y="194.8" fill="#000" font-family="Verdana" font-size="12">Numero_unique</text>
	<line x1="228" y1="197" x2="325" y2="197" stroke="#000" stroke-width="1"/>
	<text x="228" y="211.8" fill="#000" font-family="Verdana" font-size="12">Nom</text>
</g>

<!-- Entity Vol -->
<g>
	<g>
		<rect x="395" y="110" width="118" height="25" fill="#b2abd2" stroke="#b2abd2" stroke-width="0" opacity="1"/>
		<rect x="395" y="135" width="118" height="127" fill="#d8daeb" stroke="#d8daeb" stroke-width="0" opacity="1"/>
		<rect x="395" y="110" width="118" height="152" fill="none" stroke="#8073ac" stroke-width="2" opacity="1"/>
		<line x1="395" y1="135" x2="513" y2="135" stroke="#8073ac" stroke-width="1"/>
	</g>
	<text x="444" y="127.75" fill="#000" font-family="Verdana" font-size="12">Vol</text>
	<text x="400" y="152.8" fill="#000" font-family="Verdana" font-size="12">N째Vol</text>
	<line x1="400" y1="155" x2="435" y2="155" stroke="#000" stroke-width="1"/>
	<text x="400" y="169.8" fill="#000" font-family="Verdana" font-size="12">Ville_depart</text>
	<text x="400" y="186.8" fill="#000" font-family="Verdana" font-size="12">Destination</text>
	<text x="400" y="203.8" fill="#000" font-family="Verdana" font-size="12">Date_decollage</text>
	<text x="400" y="220.8" fill="#000" font-family="Verdana" font-size="12">date_atterrissage</text>
	<text x="400" y="237.8" fill="#000" font-family="Verdana" font-size="12">Nb_passagers</text>
	<text x="400" y="254.8" fill="#000" font-family="Verdana" font-size="12">#Numero_unique</text>
</g>

<!-- Link from &quot;N째Vol&quot; (Embarquer) to &quot;N째Vol&quot; (Vol) -->
<path d="M493 55.5 C547 102 567 148.5 513 148.5" fill="none" stroke="#e08214" stroke-width="2"/>
<polygon points="513 148.5 525 142.5 521 148.5 525 154.5" fill="#e08214" stroke-width="0"/>
<circle cx="493" cy="55.5" r="2" stroke="#e08214" stroke-width="2" fill="#e08214"/>

<!-- Link from &quot;ID&quot; (Embarquer) to &quot;ID&quot; (Passager) -->
<path d="M493 72.5 C535 60 521 47.5 577 47.5" fill="none" stroke="#e08214" stroke-width="2"/>
<polygon points="577 47.5 565 53.5 569 47.5 565 41.5" fill="#e08214" stroke-width="0"/>
<circle cx="493" cy="72.5" r="2" stroke="#e08214" stroke-width="2" fill="#e08214"/>

<!-- Link from &quot;Numero_unique&quot; (Avion) to &quot;Numero_unique&quot; (Compagnie) -->
<path d="M159 216.5 C191 203.5 180.33 190.5 223 190.5" fill="none" stroke="#e08214" stroke-width="2"/>
<polygon points="223 190.5 211 196.5 215 190.5 211 184.5" fill="#e08214" stroke-width="0"/>
<circle cx="159" cy="216.5" r="2" stroke="#e08214" stroke-width="2" fill="#e08214"/>

<!-- Link from &quot;Numero_unique&quot; (Vol) to &quot;Numero_unique&quot; (Compagnie) -->
<path d="M395 250.5 C363 220.5 373.67 190.5 331 190.5" fill="none" stroke="#e08214" stroke-width="2"/>
<polygon points="331 190.5 343 184.5 339 190.5 343 196.5" fill="#e08214" stroke-width="0"/>
<circle cx="395" cy="250.5" r="2" stroke="#e08214" stroke-width="2" fill="#e08214"/>
</svg>