<?xml version="1.0" encoding="utf-8"?>
<svg width="596" height="406" viewBox="0 0 596 406" xmlns="http://www.w3.org/2000/svg">
<rect id="frame" x="0" y="0" width="596" height="406" fill="#f7f7f7" stroke="none" stroke-width="0"/>

<!-- Entity Forfait -->
<g>
	<g>
		<rect x="272" y="9" width="110" height="25" fill="#b2abd2" stroke="#b2abd2" stroke-width="0" opacity="1"/>
		<rect x="272" y="34" width="110" height="93" fill="#d8daeb" stroke="#d8daeb" stroke-width="0" opacity="1"/>
		<rect x="272" y="9" width="110" height="118" fill="none" stroke="#8073ac" stroke-width="2" opacity="1"/>
		<line x1="272" y1="34" x2="382" y2="34" stroke="#8073ac" stroke-width="1"/>
	</g>
	<text x="307" y="26.75" fill="#000" font-family="Verdana" font-size="12">Forfait</text>
	<text x="277" y="51.8" fill="#000" font-family="Verdana" font-size="12">ID_forfait</text>
	<line x1="277" y1="54" x2="336" y2="54" stroke="#000" stroke-width="1"/>
	<text x="277" y="68.8" fill="#000" font-family="Verdana" font-size="12">Minutes_appel</text>
	<text x="277" y="85.8" fill="#000" font-family="Verdana" font-size="12">Message_inclus</text>
	<text x="277" y="102.8" fill="#000" font-family="Verdana" font-size="12">Donnes_mobiles</text>
	<text x="277" y="119.8" fill="#000" font-family="Verdana" font-size="12">Cout</text>
</g>

<!-- Entity Envoyer_msg -->
<g>
	<g>
		<rect x="41" y="160" width="148" height="25" fill="#b2abd2" stroke="#b2abd2" stroke-width="0" opacity="1"/>
		<rect x="41" y="185" width="148" height="77" fill="#d8daeb" stroke="#d8daeb" stroke-width="0" opacity="1"/>
		<rect x="41" y="160" width="148" height="102" fill="none" stroke="#8073ac" stroke-width="2" opacity="1"/>
		<line x1="41" y1="185" x2="189" y2="185" stroke="#8073ac" stroke-width="1"/>
	</g>
	<text x="74" y="177.75" fill="#000" font-family="Verdana" font-size="12">Envoyer_msg</text>
	<text x="46" y="202.8" fill="#000" font-family="Verdana" font-size="12">#Numero_telephone</text>
	<line x1="46" y1="205" x2="172" y2="205" stroke="#000" stroke-width="1"/>
	<text x="46" y="219.8" fill="#000" font-family="Verdana" font-size="12">#Numero_telephone.1</text>
	<line x1="46" y1="222" x2="184" y2="222" stroke="#000" stroke-width="1"/>
	<text x="46" y="236.8" fill="#000" font-family="Verdana" font-size="12">Contenu</text>
	<text x="46" y="253.8" fill="#000" font-family="Verdana" font-size="12">Date</text>
</g>

<!-- Entity Abonné -->
<g>
	<g>
		<rect x="264" y="152" width="126" height="25" fill="#b2abd2" stroke="#b2abd2" stroke-width="0" opacity="1"/>
		<rect x="264" y="177" width="126" height="93" fill="#d8daeb" stroke="#d8daeb" stroke-width="0" opacity="1"/>
		<rect x="264" y="152" width="126" height="118" fill="none" stroke="#8073ac" stroke-width="2" opacity="1"/>
		<line x1="264" y1="177" x2="390" y2="177" stroke="#8073ac" stroke-width="1"/>
	</g>
	<text x="304" y="169.75" fill="#000" font-family="Verdana" font-size="12">Abonné</text>
	<text x="269" y="194.8" fill="#000" font-family="Verdana" font-size="12">Numero_telephone</text>
	<line x1="269" y1="197" x2="385" y2="197" stroke="#000" stroke-width="1"/>
	<text x="269" y="211.8" fill="#000" font-family="Verdana" font-size="12">Nom</text>
	<text x="269" y="228.8" fill="#000" font-family="Verdana" font-size="12">Adresse</text>
	<text x="269" y="245.8" fill="#000" font-family="Verdana" font-size="12">#ID_Station</text>
	<text x="269" y="262.8" fill="#000" font-family="Verdana" font-size="12">#ID_forfait</text>
</g>

<!-- Entity Station -->
<g>
	<g>
		<rect x="465" y="169" width="90" height="25" fill="#b2abd2" stroke="#b2abd2" stroke-width="0" opacity="1"/>
		<rect x="465" y="194" width="90" height="59" fill="#d8daeb" stroke="#d8daeb" stroke-width="0" opacity="1"/>
		<rect x="465" y="169" width="90" height="84" fill="none" stroke="#8073ac" stroke-width="2" opacity="1"/>
		<line x1="465" y1="194" x2="555" y2="194" stroke="#8073ac" stroke-width="1"/>
	</g>
	<text x="488" y="186.75" fill="#000" font-family="Verdana" font-size="12">Station</text>
	<text x="470" y="211.8" fill="#000" font-family="Verdana" font-size="12">ID_Station</text>
	<line x1="470" y1="214" x2="536" y2="214" stroke="#000" stroke-width="1"/>
	<text x="470" y="228.8" fill="#000" font-family="Verdana" font-size="12">Nom</text>
	<text x="470" y="245.8" fill="#000" font-family="Verdana" font-size="12">Coordonnées</text>
</g>

<!-- Entity Appeller -->
<g>
	<g>
		<rect x="253" y="295" width="148" height="25" fill="#b2abd2" stroke="#b2abd2" stroke-width="0" opacity="1"/>
		<rect x="253" y="320" width="148" height="77" fill="#d8daeb" stroke="#d8daeb" stroke-width="0" opacity="1"/>
		<rect x="253" y="295" width="148" height="102" fill="none" stroke="#8073ac" stroke-width="2" opacity="1"/>
		<line x1="253" y1="320" x2="401" y2="320" stroke="#8073ac" stroke-width="1"/>
	</g>
	<text x="302" y="312.75" fill="#000" font-family="Verdana" font-size="12">Appeller</text>
	<text x="258" y="337.8" fill="#000" font-family="Verdana" font-size="12">#Numero_telephone</text>
	<line x1="258" y1="340" x2="384" y2="340" stroke="#000" stroke-width="1"/>
	<text x="258" y="354.8" fill="#000" font-family="Verdana" font-size="12">#Numero_telephone.1</text>
	<line x1="258" y1="357" x2="396" y2="357" stroke="#000" stroke-width="1"/>
	<text x="258" y="371.8" fill="#000" font-family="Verdana" font-size="12">ID_appel</text>
	<text x="258" y="388.8" fill="#000" font-family="Verdana" font-size="12">Duree</text>
</g>

<!-- Link from &quot;Numero_telephone&quot; (Envoyer_msg) to &quot;Numero_telephone&quot; (Abonné) -->
<path d="M189 198.5 C226.5 194.5 214 190.5 264 190.5" fill="none" stroke="#e08214" stroke-width="2"/>
<polygon points="264 190.5 252 196.5 256 190.5 252 184.5" fill="#e08214" stroke-width="0"/>
<circle cx="189" cy="198.5" r="2" stroke="#e08214" stroke-width="2" fill="#e08214"/>

<!-- Link from &quot;Numero_telephone&quot; (Envoyer_msg) to &quot;Numero_telephone&quot; (Abonné) -->
<path d="M189 215.5 C226.5 203 214 190.5 264 190.5" fill="none" stroke="#e08214" stroke-width="2"/>
<polygon points="264 190.5 252 196.5 256 190.5 252 184.5" fill="#e08214" stroke-width="0"/>
<circle cx="189" cy="215.5" r="2" stroke="#e08214" stroke-width="2" fill="#e08214"/>

<!-- Link from &quot;ID_Station&quot; (Abonné) to &quot;ID_Station&quot; (Station) -->
<path d="M390 241.5 C427.5 224.5 415 207.5 465 207.5" fill="none" stroke="#e08214" stroke-width="2"/>
<polygon points="465 207.5 453 213.5 457 207.5 453 201.5" fill="#e08214" stroke-width="0"/>
<circle cx="390" cy="241.5" r="2" stroke="#e08214" stroke-width="2" fill="#e08214"/>

<!-- Link from &quot;ID_forfait&quot; (Abonné) to &quot;ID_forfait&quot; (Forfait) -->
<path d="M390 258.5 C444 153 436 47.5 382 47.5" fill="none" stroke="#e08214" stroke-width="2"/>
<polygon points="382 47.5 394 41.5 390 47.5 394 53.5" fill="#e08214" stroke-width="0"/>
<circle cx="390" cy="258.5" r="2" stroke="#e08214" stroke-width="2" fill="#e08214"/>

<!-- Link from &quot;Numero_telephone&quot; (Appeller) to &quot;Numero_telephone&quot; (Abonné) -->
<path d="M401 333.5 C455 262 444 190.5 390 190.5" fill="none" stroke="#e08214" stroke-width="2"/>
<polygon points="390 190.5 402 184.5 398 190.5 402 196.5" fill="#e08214" stroke-width="0"/>
<circle cx="401" cy="333.5" r="2" stroke="#e08214" stroke-width="2" fill="#e08214"/>

<!-- Link from &quot;Numero_telephone&quot; (Appeller) to &quot;Numero_telephone&quot; (Abonné) -->
<path d="M253 350.5 C199 270.5 210 190.5 264 190.5" fill="none" stroke="#e08214" stroke-width="2"/>
<polygon points="264 190.5 252 196.5 256 190.5 252 184.5" fill="#e08214" stroke-width="0"/>
<circle cx="253" cy="350.5" r="2" stroke="#e08214" stroke-width="2" fill="#e08214"/>
</svg>